# xmcd
# 
# Track frame offsets:
#     150
#     12937
#     29471
#     59131
#     69038
#     81182
#     98367
#     125699
#     137853
#     151930
# 
# Disc length: 2206
# 
# Revision: 0
# Processed by: cddbd v1.5.2PL0 Copyright (c) Steve Scherf et al.
# Submitted via: BonkEnc v1.0.6
# 
DISCID=7d089c0a
DTITLE=Taste - On The Boards
DYEAR=1970
DGENRE=Blues Rock
TTITLE0=What's Going On
TTITLE1=Railway And Gun
TTITLE2=It's Happened Before, It'll Happen Again
TTITLE3=If The Day Was Any Longer
TTITLE4=Morning Sun
TTITLE5=Eat My Words
TTITLE6=On The Boards
TTITLE7=If I Don't Sing I'll Cry
TTITLE8=See Here
TTITLE9=I'll Remember
EXTD=
EXTT0=
EXTT1=
EXTT2=
EXTT3=
EXTT4=
EXTT5=
EXTT6=
EXTT7=
EXTT8=
EXTT9=
PLAYORDER=
